<svg viewBox="0 0 96 96" xmlns="http://www.w3.org/2000/svg" xmlns:xlink="http://www.w3.org/1999/xlink" id="Icons_BridgeScene" overflow="hidden"><path d="M84.9 72.56C82.9346 71.7985 80.8563 71.3693 78.75 71.29 76.6437 71.3693 74.5654 71.7985 72.6 72.56 71.2911 73.0866 69.9075 73.4038 68.5 73.5L68.5 73.5C67.0925 73.4038 65.7089 73.0866 64.4 72.56 62.4346 71.7985 60.3563 71.3693 58.25 71.29 56.1437 71.3693 54.0654 71.7985 52.1 72.56 50.7911 73.0866 49.4075 73.4038 48 73.5 46.5925 73.4038 45.2089 73.0866 43.9 72.56 41.9346 71.7985 39.8563 71.3693 37.75 71.29 35.6437 71.3693 33.5654 71.7985 31.6 72.56 30.2911 73.0866 28.9075 73.4038 27.5 73.5 26.0925 73.4038 24.7089 73.0866 23.4 72.56 21.4346 71.7985 19.3563 71.3693 17.25 71.29 15.1437 71.3693 13.0654 71.7985 11.1 72.56 9.79114 73.0866 8.40753 73.4038 7 73.5L7 79.5C9.10625 79.4207 11.1846 78.9915 13.15 78.23 14.4556 77.6832 15.8393 77.3457 17.25 77.23 18.6607 77.3457 20.0444 77.6832 21.35 78.23 23.3154 78.9915 25.3937 79.4207 27.5 79.5 29.6063 79.4207 31.6846 78.9915 33.65 78.23 34.9556 77.6832 36.3393 77.3457 37.75 77.23 39.1575 77.3262 40.5411 77.6434 41.85 78.17 43.8105 78.9564 45.8897 79.4061 48 79.5 50.1063 79.4207 52.1846 78.9915 54.15 78.23 55.4556 77.6832 56.8393 77.3457 58.25 77.23 59.6607 77.3457 61.0444 77.6832 62.35 78.23 64.3154 78.9915 66.3937 79.4207 68.5 79.5 70.6063 79.4207 72.6846 78.9915 74.65 78.23 75.9556 77.6832 77.3393 77.3457 78.75 77.23 80.1575 77.3262 81.5411 77.6434 82.85 78.17 84.8105 78.9564 86.8897 79.4061 89 79.5L89 73.5C87.5925 73.4038 86.2089 73.0866 84.9 72.56Z" stroke-width="3.33333" fill="#995AAF"/><path d="M84.9 84.56C82.9346 83.7985 80.8563 83.3693 78.75 83.29 76.6437 83.3693 74.5654 83.7985 72.6 84.56 71.2911 85.0866 69.9075 85.4038 68.5 85.5L68.5 85.5C67.0925 85.4038 65.7089 85.0866 64.4 84.56 62.4346 83.7985 60.3563 83.3693 58.25 83.29 56.1437 83.3693 54.0654 83.7985 52.1 84.56 50.7911 85.0866 49.4075 85.4038 48 85.5 46.5925 85.4038 45.2089 85.0866 43.9 84.56 41.9346 83.7985 39.8563 83.3693 37.75 83.29 35.6437 83.3693 33.5654 83.7985 31.6 84.56 30.2911 85.0866 28.9075 85.4038 27.5 85.5 26.0925 85.4038 24.7089 85.0866 23.4 84.56 21.4346 83.7985 19.3563 83.3693 17.25 83.29 15.1437 83.3693 13.0654 83.7985 11.1 84.56 9.79114 85.0866 8.40753 85.4038 7 85.5L7 91.5C9.10625 91.4207 11.1846 90.9915 13.15 90.23 14.4556 89.6832 15.8393 89.3457 17.25 89.23 18.6607 89.3457 20.0444 89.6832 21.35 90.23 23.3154 90.9915 25.3937 91.4207 27.5 91.5 29.6063 91.4207 31.6846 90.9915 33.65 90.23 34.9556 89.6832 36.3393 89.3457 37.75 89.23 39.1575 89.3262 40.5411 89.6434 41.85 90.17 43.8105 90.9564 45.8897 91.4061 48 91.5 50.1063 91.4207 52.1846 90.9915 54.15 90.23 55.4556 89.6832 56.8393 89.3457 58.25 89.23 59.6607 89.3457 61.0444 89.6832 62.35 90.23 64.3154 90.9915 66.3937 91.4207 68.5 91.5 70.6063 91.4207 72.6846 90.9915 74.65 90.23 75.9556 89.6832 77.3393 89.3457 78.75 89.23 80.1575 89.3262 81.5411 89.6434 82.85 90.17 84.8105 90.9564 86.8897 91.4061 89 91.5L89 85.5C87.5925 85.4038 86.2089 85.0866 84.9 84.56Z" stroke-width="3.33333" fill="#995AAF"/><path d="M89 39.25 89 35.25C79.09 35.25 70.06 28.03 70 20.08L70 20 66 20 66 20.08C65.94 27.76 56 35.21 48 35.21 40 35.21 30.06 27.76 30 20.08L30 20 26 20 26 20.08C25.94 28.08 16.91 35.25 7 35.25L7 39.25C8.00291 39.2471 9.00474 39.1837 10 39.06L10 47 7 47 7 55 25 55 25 66.88C25.897 67.1408 26.8186 67.3084 27.75 67.38 28.8562 67.2998 29.948 67.0814 31 66.73L31 55 65 55 65 67C65.8959 67.2656 66.8179 67.4333 67.75 67.5 68.8562 67.4198 69.948 67.2014 71 66.85L71 55 89 55 89 47 86 47 86 39.06C86.9953 39.1837 87.9971 39.2471 89 39.25ZM18 47 14 47 14 38.25C15.3734 37.8559 16.7114 37.3475 18 36.73ZM25 47 22 47 22 34.32C23.075 33.5217 24.0787 32.6317 25 31.66ZM34 47 31 47 31 31.66C31.9218 32.6281 32.9255 33.5148 34 34.31ZM58 36.72 58 47 54 47 54 38.24C55.3734 37.8459 56.7114 37.3375 58 36.72ZM50 39.05 50 47.05 46 47.05 46 39.05C46.66 39.13 47.33 39.19 48 39.22 48.67 39.25 49.34 39.13 50 39.05ZM38 36.72C39.2888 37.3342 40.6268 37.8393 42 38.23L42 47 38 47ZM62 47 62 34.31C63.0745 33.5148 64.0782 32.6282 65 31.66L65 47ZM71 31.66C71.9213 32.6317 72.925 33.5217 74 34.32L74 47 71 47ZM82 47 78 47 78 36.73C79.2886 37.3475 80.6266 37.8559 82 38.25Z" stroke-width="3.33333" fill="#995AAF"/></svg>