<svg viewBox="0 0 96 96" xmlns="http://www.w3.org/2000/svg" xmlns:xlink="http://www.w3.org/1999/xlink" id="Icons_Beaker" overflow="hidden"><circle cx="40" cy="22" r="6" stroke-width="3.33333" fill="#995AAF"/><circle cx="37" cy="7" r="3" stroke-width="3.33333" fill="#995AAF"/><circle cx="54" cy="25" r="3" stroke-width="3.33333" fill="#995AAF"/><circle cx="56" cy="12" r="4" stroke-width="3.33333" fill="#995AAF"/><path d="M75.9 32.5C75.7 31.6 74.9 31 74 31L22 31C21.1 31 20.3 31.6 20.1 32.5 19.9 33.4 20.3 34.3 21.1 34.7 21.1 34.7 24.1 36.4 24.1 40L24.1 86C24.1 89.3 26.8 92 30.1 92L66.1 92C69.4 92 72.1 89.3 72.1 86L72.1 40C72.1 36.4 74.9 34.8 75 34.8 75.7 34.3 76.2 33.4 75.9 32.5ZM62 84 50 84 50 80 62 80 62 84ZM62 76 50 76 50 72 62 72 62 76ZM62 68 50 68 50 64 62 64 62 68ZM62 60 50 60 50 56 62 56 62 60ZM62 52 50 52 50 48 62 48 62 52ZM68 40 68 41.9C64.9 40.7 59.9 39 55 39 49.6 39 46.3 39.9 42.9 40.8 39.2 41.8 35.3 42.8 28 43L28 40C28 38 27.4 36.3 26.7 35L69.3 35C68.6 36.3 68 38 68 40Z" stroke-width="3.33333" fill="#995AAF"/></svg>