<svg viewBox="0 0 732 189" width="100%" height="100%" preserveAspectRatio="xMidYMid meet" xmlns="http://www.w3.org/2000/svg" xmlns:xlink="http://www.w3.org/1999/xlink" overflow="hidden"><defs><radialGradient cx="3452124" cy="533400" r="3378844" gradientUnits="userSpaceOnUse" spreadMethod="pad" id="fill0" gradientTransform="matrix(0.000104987 0 0 0.000104987 453.082 340.612)"><stop offset="0" stop-color="#29C8F8"/><stop offset="0.5" stop-color="#995AAF"/><stop offset="0.91" stop-color="#EC4E94"/><stop offset="1" stop-color="#EC4E94"/></radialGradient></defs><g transform="translate(-274 -214)"><path d="M802.424 381.142 807.211 381.142 807.211 386.412 802.424 386.412ZM471.88 373.311 471.88 382.612 475.702 382.612C479.201 382.612 480.951 381.065 480.951 377.972 480.951 376.768 480.58 375.69 479.838 374.739 479.096 373.787 477.584 373.311 475.303 373.311ZM552.316 368.041C549.894 368.041 548.684 370.529 548.684 375.505 548.684 380.817 549.908 383.473 552.358 383.473 553.305 383.473 554.164 383.033 554.936 382.152 555.709 381.271 556.095 379.741 556.095 377.56L556.095 373.933C556.095 371.752 555.685 370.225 554.863 369.351 554.042 368.478 553.193 368.041 552.316 368.041ZM608.368 368.02C605.912 368.02 604.684 370.62 604.684 375.82 604.684 378.476 604.97 380.44 605.542 381.712 606.114 382.984 607.056 383.62 608.368 383.62 609.666 383.62 610.605 382.974 611.184 381.68 611.764 380.387 612.053 378.434 612.053 375.82 612.053 372.842 611.722 370.798 611.059 369.687 610.396 368.576 609.499 368.02 608.368 368.02ZM784.358 367.894C782.076 367.894 780.823 369.763 780.6 373.5L788.011 373.5C788.011 369.763 786.793 367.894 784.358 367.894ZM736.925 365.206 741.292 365.206 741.292 378.686C741.292 380.562 741.447 381.818 741.756 382.455 742.065 383.092 742.746 383.41 743.8 383.41 745.106 383.41 746.019 382.843 746.539 381.709 747.058 380.576 747.318 378.476 747.318 375.411L747.318 365.206 751.686 365.206 751.686 386.412 747.654 386.412 747.654 383.221C746.523 385.699 744.727 386.937 742.269 386.937 741.011 386.937 739.981 386.671 739.178 386.14 738.375 385.608 737.798 384.852 737.449 383.872 737.1 382.892 736.925 381.191 736.925 378.77ZM697.925 365.206 702.292 365.206 702.292 378.686C702.292 380.562 702.447 381.818 702.756 382.455 703.065 383.092 703.746 383.41 704.8 383.41 706.106 383.41 707.019 382.843 707.539 381.709 708.058 380.576 708.318 378.476 708.318 375.411L708.318 365.206 712.686 365.206 712.686 386.412 708.654 386.412 708.654 383.221C707.523 385.699 705.727 386.937 703.269 386.937 702.011 386.937 700.981 386.671 700.178 386.14 699.375 385.608 698.798 384.852 698.449 383.872 698.1 382.892 697.925 381.191 697.925 378.77ZM624.925 365.206 629.292 365.206 629.292 378.686C629.292 380.562 629.447 381.818 629.756 382.455 630.065 383.092 630.746 383.41 631.8 383.41 633.106 383.41 634.019 382.843 634.539 381.709 635.058 380.576 635.318 378.476 635.318 375.411L635.318 365.206 639.686 365.206 639.686 386.412 635.654 386.412 635.654 383.221C634.523 385.699 632.727 386.937 630.269 386.937 629.011 386.937 627.981 386.671 627.178 386.14 626.375 385.608 625.798 384.852 625.449 383.872 625.1 382.892 624.925 381.191 624.925 378.77ZM518.072 365.206 522.439 365.206 522.439 386.412 518.072 386.412ZM493.925 365.206 498.292 365.206 498.292 378.686C498.292 380.562 498.447 381.818 498.756 382.455 499.065 383.092 499.746 383.41 500.8 383.41 502.106 383.41 503.019 382.843 503.539 381.709 504.058 380.576 504.318 378.476 504.318 375.411L504.318 365.206 508.686 365.206 508.686 386.412 504.654 386.412 504.654 383.221C503.523 385.699 501.728 386.937 499.269 386.937 498.011 386.937 496.981 386.671 496.178 386.14 495.375 385.608 494.798 384.852 494.449 383.872 494.1 382.892 493.925 381.191 493.925 378.77ZM770.224 364.766C770.448 364.766 770.715 364.786 771.024 364.828L771.024 369.385C770.659 369.343 770.364 369.322 770.139 369.322 767.006 369.322 765.439 371.421 765.439 375.62L765.439 386.412 761.072 386.412 761.072 365.206 764.915 365.206 764.915 369.952C766.094 366.494 767.864 364.766 770.224 364.766ZM658.224 364.766C658.449 364.766 658.715 364.786 659.024 364.828L659.024 369.385C658.659 369.343 658.364 369.322 658.139 369.322 655.006 369.322 653.439 371.421 653.439 375.62L653.439 386.412 649.072 386.412 649.072 365.206 652.915 365.206 652.915 369.952C654.094 366.494 655.864 364.766 658.224 364.766ZM784.505 364.703C786.311 364.703 787.829 365.199 789.061 366.193 790.293 367.187 791.161 368.492 791.665 370.109 792.168 371.726 792.441 373.843 792.483 376.46L780.495 376.46C780.495 379.322 780.882 381.23 781.657 382.186 782.432 383.142 783.405 383.62 784.578 383.62 786.532 383.62 787.768 382.304 788.284 379.673L792.294 380.198C791.245 384.691 788.627 386.937 784.442 386.937 781.88 386.937 779.837 386.021 778.311 384.187 776.785 382.353 776.022 379.666 776.022 376.124 776.022 372.485 776.792 369.672 778.332 367.684 779.872 365.696 781.929 364.703 784.505 364.703ZM608.421 364.703C610.968 364.703 612.988 365.605 614.478 367.411 615.969 369.217 616.714 371.946 616.714 375.599 616.714 383.158 613.915 386.937 608.316 386.937 605.74 386.937 603.714 386.024 602.238 384.197 600.761 382.371 600.022 379.575 600.022 375.809 600.022 368.405 602.822 364.703 608.421 364.703ZM471.88 361.427 471.88 369.637 474.883 369.637C476.996 369.637 478.389 369.248 479.061 368.471 479.733 367.694 480.069 366.69 480.069 365.458 480.069 364.017 479.684 362.984 478.914 362.361 478.144 361.739 476.954 361.427 475.345 361.427ZM726.796 359.307 726.796 365.206 730.849 365.206 730.849 368.734 726.796 368.734 726.796 378.085C726.796 379.734 726.838 380.828 726.922 381.366 727.006 381.904 727.258 382.344 727.678 382.686 728.098 383.029 728.798 383.2 729.778 383.2 730.296 383.2 730.884 383.151 731.542 383.053L731.542 386.557C730.366 386.811 729.274 386.937 728.266 386.937 726.628 386.937 725.376 386.619 724.508 385.982 723.64 385.345 723.087 384.481 722.849 383.389 722.611 382.297 722.492 380.632 722.492 378.392L722.492 368.734 719.742 368.734 719.742 365.206 722.618 365.206 722.849 359.684ZM801.92 357.753 807.736 357.753 806.266 378.686 803.39 378.686ZM676.24 357.753 692.155 357.753 692.155 361.553 680.985 361.553 680.985 370.12 689.93 370.12 689.93 373.92 680.985 373.92 680.985 386.412 676.24 386.412ZM577.125 357.753 582.28 357.753 587.554 369.704 592.906 357.753 597.449 357.753 589.492 374.298 589.492 386.412 584.747 386.412 584.747 374.298ZM556.095 357.753 560.462 357.753 560.462 386.412 556.431 386.412 556.431 383.2C555.413 385.594 553.662 386.79 551.179 386.79 548.793 386.79 547.004 385.79 545.812 383.788 544.619 381.786 544.022 379.162 544.022 375.914 544.022 372.429 544.682 369.714 546 367.768 547.318 365.822 549.072 364.849 551.262 364.849 553.564 364.849 555.175 365.787 556.095 367.663ZM532.093 357.753 536.46 357.753 536.46 386.412 532.093 386.412ZM467.24 357.753 475.912 357.753C478.095 357.753 479.754 357.928 480.888 358.278 482.021 358.628 482.98 359.408 483.764 360.619 484.548 361.83 484.94 363.303 484.94 365.038 484.94 368.216 483.519 370.308 480.678 371.316 484.107 372.394 485.822 374.795 485.822 378.518 485.822 380.632 485.146 382.476 483.796 384.05 482.445 385.625 479.859 386.412 476.038 386.412L467.24 386.412ZM517.967 357.711 522.565 357.711 522.565 362.351 517.967 362.351Z" fill="url(#fill0)" fill-rule="evenodd"/><text fill="#000000" fill-opacity="0" font-family="Arial,Arial_MSFontService,sans-serif" font-size="29.2266" x="467.24" y="383.284">Build Your Future!</text><text fill="#29C8F8" font-family="Arial Rounded MT Bold,Arial Rounded MT Bold_MSFontService,sans-serif" font-weight="700" font-size="80" transform="translate(330.833 318)">CAREER</text><text fill="#F15698" font-family="Arial Rounded MT Bold,Arial Rounded MT Bold_MSFontService,sans-serif" font-weight="700" font-size="80" transform="translate(717.333 318)">LENS</text></g></svg>