<svg viewBox="0 0 96 96" xmlns="http://www.w3.org/2000/svg" xmlns:xlink="http://www.w3.org/1999/xlink" id="Icons_TestTubes" overflow="hidden"><path d="M88 79 88 23 84 23 84 32 78 32 78 18C78 15.9 78.4 15.1 78.5 14.9 79.4 14.7 80 13.9 80 12.9 80 11.8 79.1 10.9 78 11L78 11 62.1 11C61 10.9 60.1 11.8 60 12.9 60 13.8 60.6 14.6 61.5 14.9 61.6 15.1 62 15.9 62 18L62 32 56 32 56 18C56 15.9 56.4 15.1 56.5 14.9 57.4 14.7 58 13.9 58 12.9 58 11.8 57.1 10.9 56 11L56 11 40.1 11C39 10.9 38.1 11.8 38 12.9 38 13.8 38.6 14.6 39.5 14.9 39.6 15.1 40 15.9 40 18L40 32 34 32 34 18C34 15.9 34.4 15.1 34.5 14.9 35.4 14.7 36 13.9 36 12.9 36 11.8 35.1 10.9 34 11L34 11 18.1 11C17 10.9 16.1 11.8 16 12.9 16 13.8 16.6 14.6 17.5 14.9 17.6 15.1 18 15.9 18 18L18 32 12 32 12 23 8 23 8 79 4 79 4 85 92 85 92 79 88 79ZM74.3 15C74.1 15.8 74 16.8 74 18L74 27C74 27 72 26 70 26 68 26 66 27 66 27L66 18C66 16.8 65.9 15.8 65.7 15L74.3 15ZM52.3 15C52.1 15.8 52 16.8 52 18L52 27C52 27 50 26 48 26 46 26 44 27 44 27L44 18C44 16.8 43.9 15.8 43.7 15L52.3 15ZM30.3 15C30.1 15.8 30 16.8 30 18L30 27C30 27 28 26 26 26 24 26 22 27 22 27L22 18C22 16.8 21.9 15.8 21.7 15L30.3 15ZM84 79 12 79 12 36 18 36 18 67C18 71.4 21.6 75 26 75 30.4 75 34 71.4 34 67L34 36 40 36 40 67C40 71.4 43.6 75 48 75 52.4 75 56 71.4 56 67L56 36 62 36 62 67C62 71.4 65.6 75 70 75 74.4 75 78 71.4 78 67L78 36 84 36 84 79Z" stroke-width="3.33333" fill="#995AAF"/></svg>